<svg id="svg" xmlns="http://www.w3.org/2000/svg" xmlns:xlink="http://www.w3.org/1999/xlink" width="400" height="400" viewBox="0, 0, 400,400">
  <style id='styleSettingsIcon'>
    .dark-light { fill: #F5F5F5 }
    @media (prefers-color-scheme: dark) { .dark-light { fill: #DDD } }
  </style>
  <g id="svggSettingsIcon"><path id="path0" d="M177.938 13.285 C 163.704 16.711,154.319 23.817,148.328 35.706 C 145.311 41.692,144.330 47.311,144.330 58.604 L 144.330 67.516 137.216 71.050 C 130.099 74.586,121.442 79.780,117.042 83.154 C 114.129 85.388,114.827 85.487,108.807 81.980 C 101.497 77.721,97.469 75.654,94.613 74.696 C 79.363 69.582,62.242 73.878,51.774 85.445 C 49.877 87.542,46.186 92.504,46.186 92.957 C 46.186 93.039,44.721 95.605,42.932 98.660 C 41.143 101.715,39.217 105.029,38.653 106.025 C 38.089 107.020,36.928 109.041,36.072 110.515 C 31.670 118.102,30.419 120.469,29.318 123.299 C 25.768 132.419,25.874 144.327,29.580 152.990 C 34.365 164.172,38.706 168.365,55.155 177.693 L 58.969 179.856 58.728 182.196 C 58.596 183.483,58.318 186.016,58.110 187.824 C 57.623 192.057,57.623 202.994,58.110 207.227 C 58.318 209.036,58.596 211.566,58.728 212.851 L 58.968 215.186 55.566 217.128 C 42.575 224.542,39.858 226.556,35.459 232.030 C 24.916 245.150,23.782 263.020,32.519 278.351 C 33.618 280.278,35.217 283.062,36.072 284.536 C 36.928 286.010,38.089 288.031,38.653 289.027 C 39.217 290.022,41.143 293.337,42.932 296.392 C 44.721 299.447,46.186 302.010,46.186 302.087 C 46.186 302.767,50.682 308.460,53.171 310.931 C 63.999 321.682,79.874 325.293,94.613 320.357 C 97.399 319.424,101.228 317.455,108.807 313.059 C 114.826 309.567,114.128 309.667,117.042 311.883 C 121.681 315.412,130.241 320.550,137.216 323.993 L 144.330 327.504 144.330 336.432 C 144.330 361.949,155.169 376.448,178.253 381.812 C 180.699 382.380,217.574 382.444,219.746 381.884 C 220.566 381.672,222.536 381.183,224.124 380.797 C 236.457 377.798,247.975 366.946,251.926 354.604 C 253.609 349.347,254.020 345.783,254.021 336.470 L 254.021 327.578 261.165 323.995 C 268.195 320.468,276.355 315.586,281.290 311.952 C 284.382 309.676,283.511 309.559,289.544 313.059 C 297.123 317.455,300.952 319.424,303.737 320.357 C 318.856 325.419,335.989 321.201,346.350 309.864 C 348.091 307.959,352.165 302.511,352.165 302.087 C 352.165 302.010,353.629 299.447,355.418 296.392 C 357.208 293.337,359.133 290.022,359.698 289.027 C 360.262 288.031,361.395 286.057,362.217 284.639 C 365.881 278.320,366.729 276.775,368.039 274.042 C 372.247 265.262,372.759 249.355,369.053 242.510 C 368.858 242.150,368.035 240.489,367.224 238.819 C 362.889 229.895,357.514 225.200,341.546 216.390 L 339.382 215.196 339.622 212.856 C 339.755 211.569,340.033 209.036,340.241 207.227 C 340.727 202.994,340.727 192.057,340.241 187.824 C 340.033 186.016,339.755 183.483,339.622 182.196 L 339.382 179.856 341.546 178.661 C 357.514 169.851,362.889 165.157,367.224 156.232 C 368.035 154.562,368.858 152.902,369.053 152.542 C 372.759 145.697,372.247 129.789,368.039 121.010 C 366.729 118.276,365.881 116.732,362.217 110.412 C 361.395 108.995,360.262 107.020,359.698 106.025 C 359.133 105.029,357.208 101.715,355.418 98.660 C 353.629 95.605,352.165 93.039,352.165 92.957 C 352.165 92.504,348.473 87.542,346.576 85.445 C 336.108 73.878,318.988 69.582,303.737 74.696 C 300.882 75.654,296.854 77.721,289.544 81.980 C 283.512 85.494,284.382 85.376,281.290 83.100 C 276.288 79.417,268.100 74.516,261.134 71.035 L 254.021 67.481 254.021 58.586 C 254.020 49.269,253.609 45.706,251.926 40.448 C 247.969 28.085,236.478 17.259,224.124 14.255 C 222.536 13.868,220.566 13.380,219.746 13.168 C 217.784 12.662,180.088 12.767,177.938 13.285 M216.907 42.183 C 221.051 43.681,223.107 45.737,224.618 49.897 C 225.004 50.959,225.144 55.107,225.148 65.597 C 225.158 86.508,225.944 88.023,239.381 93.015 C 249.725 96.857,261.293 103.689,271.001 111.690 C 279.001 118.283,283.949 118.722,292.603 113.606 C 294.327 112.587,295.833 111.753,295.950 111.753 C 296.066 111.753,296.654 111.408,297.256 110.987 C 297.858 110.566,299.186 109.757,300.206 109.189 C 301.227 108.622,304.323 106.851,307.087 105.254 C 319.235 98.233,322.669 99.610,331.527 115.052 C 334.325 119.928,337.047 124.605,337.578 125.444 C 343.467 134.765,344.212 140.003,340.367 145.045 C 339.187 146.592,336.491 148.395,330.095 151.913 C 310.066 162.931,307.716 165.855,309.677 177.320 C 312.371 193.068,312.367 201.939,309.660 217.887 C 307.846 228.571,309.898 231.608,324.536 239.906 C 325.330 240.356,327.139 241.396,328.557 242.218 C 329.974 243.039,332.201 244.327,333.505 245.079 C 341.019 249.413,342.689 251.622,342.671 257.203 C 342.661 260.493,342.365 261.224,337.944 268.871 C 336.175 271.930,334.262 275.262,333.693 276.274 C 322.714 295.805,319.925 297.218,307.048 289.775 C 304.306 288.190,301.227 286.430,300.206 285.862 C 299.186 285.295,297.858 284.486,297.256 284.065 C 296.654 283.644,296.066 283.299,295.950 283.299 C 295.833 283.299,294.327 282.465,292.603 281.445 C 283.725 276.197,279.253 276.670,270.446 283.788 C 260.455 291.864,249.598 298.242,239.381 302.037 C 225.944 307.028,225.158 308.543,225.148 329.455 C 225.144 339.944,225.004 344.093,224.618 345.155 C 223.107 349.314,221.051 351.371,216.907 352.868 C 214.843 353.614,183.508 353.614,181.443 352.868 C 177.300 351.371,175.244 349.314,173.733 345.155 C 173.347 344.093,173.207 339.944,173.202 329.455 C 173.193 308.906,172.176 306.825,160.000 302.450 C 149.568 298.702,137.297 291.501,127.010 283.090 C 119.396 276.865,114.565 276.400,106.392 281.104 C 105.598 281.561,101.794 283.757,97.938 285.984 C 86.929 292.343,86.432 292.617,84.970 293.127 C 77.462 295.744,73.976 292.852,64.658 276.274 C 64.088 275.262,62.175 271.930,60.407 268.871 C 55.343 260.112,54.587 257.157,56.329 252.937 C 57.865 249.217,58.579 248.639,68.866 242.790 C 89.031 231.324,90.634 229.289,88.649 217.680 C 85.992 202.138,85.992 192.913,88.649 177.371 C 90.502 166.535,88.711 163.798,74.289 155.429 C 59.972 147.122,59.443 146.791,58.287 145.416 C 54.733 141.193,54.665 136.466,58.070 130.309 C 69.860 108.992,72.897 104.375,76.277 102.629 C 78.474 101.495,82.527 101.124,84.742 101.856 C 86.357 102.389,86.921 102.698,97.938 109.078 C 115.546 119.277,117.885 119.490,127.273 111.753 C 137.034 103.709,147.720 97.375,158.557 93.210 C 172.565 87.827,173.193 86.644,173.202 65.597 C 173.207 55.153,173.348 50.954,173.730 49.897 C 175.195 45.841,177.211 43.781,181.237 42.226 C 183.078 41.515,214.952 41.477,216.907 42.183 M189.521 125.999 C 123.762 135.558,104.195 220.158,159.110 257.485 C 200.412 285.559,258.128 262.719,269.470 213.812 C 280.798 164.966,238.799 118.836,189.521 125.999 M205.979 154.832 C 248.498 162.616,255.802 219.319,216.573 237.074 C 188.572 249.747,155.877 228.444,155.877 197.526 C 155.877 171.296,180.642 150.193,205.979 154.832 " stroke="none" class='dark-light' fill-rule="evenodd"></path></g>
</svg>